<svg width="101" height="23" viewBox="0 0 101 23" fill="none" xmlns="http://www.w3.org/2000/svg">
<path d="M10.8807 0.545454H15.0909V11.804C15.0909 13.1051 14.7813 14.2386 14.1619 15.2045C13.5426 16.1648 12.679 16.9091 11.571 17.4375C10.4631 17.9602 9.17614 18.2216 7.71023 18.2216C6.22727 18.2216 4.93182 17.9602 3.82386 17.4375C2.71591 16.9091 1.85511 16.1648 1.24148 15.2045C0.627841 14.2386 0.321023 13.1051 0.321023 11.804V0.545454H4.53977V11.4375C4.53977 12.0398 4.67045 12.5767 4.93182 13.0483C5.19886 13.5199 5.57102 13.8892 6.0483 14.1562C6.52557 14.4233 7.07955 14.5568 7.71023 14.5568C8.34091 14.5568 8.89205 14.4233 9.36364 14.1562C9.84091 13.8892 10.2131 13.5199 10.4801 13.0483C10.7472 12.5767 10.8807 12.0398 10.8807 11.4375V0.545454ZM27.1697 5.77841C27.1129 5.15341 26.8601 4.66761 26.4112 4.32102C25.968 3.96875 25.3345 3.79261 24.5107 3.79261C23.9652 3.79261 23.5107 3.86364 23.147 4.00568C22.7834 4.14773 22.5107 4.34375 22.3288 4.59375C22.147 4.83807 22.0533 5.11932 22.0476 5.4375C22.0362 5.69886 22.0874 5.92898 22.201 6.12784C22.3203 6.3267 22.4908 6.50284 22.7124 6.65625C22.9396 6.80398 23.2124 6.93466 23.5305 7.0483C23.8487 7.16193 24.2067 7.26136 24.6044 7.34659L26.1044 7.6875C26.968 7.875 27.7294 8.125 28.3885 8.4375C29.0533 8.75 29.6101 9.12216 30.0589 9.55398C30.5135 9.9858 30.8572 10.483 31.0902 11.0455C31.3232 11.608 31.4425 12.2386 31.4482 12.9375C31.4425 14.0398 31.1641 14.9858 30.6129 15.7756C30.0618 16.5653 29.2692 17.1705 28.2351 17.5909C27.2067 18.0114 25.9652 18.2216 24.5107 18.2216C23.0504 18.2216 21.7777 18.0028 20.6925 17.5653C19.6072 17.1278 18.7635 16.4631 18.1612 15.571C17.5589 14.679 17.2493 13.5511 17.2322 12.1875H21.272C21.3061 12.75 21.4567 13.2188 21.7237 13.5938C21.9908 13.9688 22.3572 14.2528 22.8232 14.446C23.2947 14.6392 23.8402 14.7358 24.4595 14.7358C25.0277 14.7358 25.5107 14.6591 25.9084 14.5057C26.3118 14.3523 26.6214 14.1392 26.8374 13.8665C27.0533 13.5937 27.1641 13.2812 27.1697 12.929C27.1641 12.5994 27.0618 12.3182 26.8629 12.0852C26.6641 11.8466 26.3572 11.642 25.9425 11.4716C25.5334 11.2955 25.0107 11.1335 24.3743 10.9858L22.5504 10.5597C21.0391 10.2131 19.8487 9.65341 18.9794 8.88068C18.1101 8.10227 17.6783 7.05114 17.6839 5.72727C17.6783 4.64773 17.968 3.7017 18.5533 2.8892C19.1385 2.0767 19.9482 1.44318 20.9822 0.988636C22.0163 0.534091 23.1953 0.306818 24.5192 0.306818C25.8714 0.306818 27.0447 0.536931 28.0391 0.997158C29.0391 1.4517 29.8146 2.09091 30.3658 2.91477C30.9169 3.73864 31.1982 4.69318 31.2095 5.77841H27.1697ZM33.5788 22.9091V4.90909H37.7038V7.15057H37.8317C38.0021 6.75284 38.2436 6.36932 38.5561 6C38.8743 5.63068 39.2777 5.32955 39.7663 5.09659C40.2607 4.85795 40.8516 4.73864 41.5391 4.73864C42.4482 4.73864 43.2976 4.97727 44.0874 5.45454C44.8828 5.93182 45.5249 6.66761 46.0135 7.66193C46.5021 8.65625 46.7464 9.9233 46.7464 11.4631C46.7464 12.946 46.5107 14.1875 46.0391 15.1875C45.5732 16.1875 44.9425 16.9375 44.147 17.4375C43.3572 17.9375 42.4794 18.1875 41.5135 18.1875C40.8544 18.1875 40.2834 18.0795 39.8004 17.8636C39.3175 17.6477 38.9112 17.3636 38.5817 17.0114C38.2578 16.6591 38.0078 16.2812 37.8317 15.8778H37.7464V22.9091H33.5788ZM37.6612 11.4545C37.6612 12.1591 37.755 12.7727 37.9425 13.2955C38.1357 13.8182 38.4112 14.2244 38.7692 14.5142C39.1328 14.7983 39.5675 14.9403 40.0732 14.9403C40.5845 14.9403 41.0192 14.7983 41.3771 14.5142C41.7351 14.2244 42.005 13.8182 42.1868 13.2955C42.3743 12.7727 42.468 12.1591 42.468 11.4545C42.468 10.75 42.3743 10.1392 42.1868 9.62216C42.005 9.10511 41.7351 8.70455 41.3771 8.42045C41.0249 8.13636 40.5902 7.99432 40.0732 7.99432C39.5618 7.99432 39.1271 8.13352 38.7692 8.41193C38.4112 8.69034 38.1357 9.08807 37.9425 9.60511C37.755 10.1222 37.6612 10.7386 37.6612 11.4545ZM53.098 10.5341V18H48.9304V0.545454H52.9616V7.3125H53.1065C53.402 6.50568 53.8849 5.875 54.5554 5.42045C55.2315 4.96591 56.0582 4.73864 57.0355 4.73864C57.956 4.73864 58.7571 4.94318 59.4389 5.35227C60.1207 5.75568 60.6491 6.3267 61.0241 7.06534C61.4048 7.80398 61.5923 8.66761 61.5866 9.65625V18H57.419V10.4744C57.4247 9.74716 57.2429 9.17898 56.8736 8.76989C56.5043 8.3608 55.9844 8.15625 55.3139 8.15625C54.8764 8.15625 54.4901 8.25284 54.1548 8.44602C53.8253 8.63352 53.5668 8.90341 53.3793 9.25568C53.1974 9.60795 53.1037 10.0341 53.098 10.5341ZM70.3075 18.2472C68.9382 18.2472 67.7564 17.9773 66.7621 17.4375C65.7734 16.892 65.0121 16.1165 64.478 15.1108C63.9496 14.0994 63.6854 12.8977 63.6854 11.5057C63.6854 10.1534 63.9524 8.97159 64.4865 7.96023C65.0206 6.94318 65.7734 6.15341 66.745 5.59091C67.7166 5.02273 68.8615 4.73864 70.1797 4.73864C71.1115 4.73864 71.9638 4.88352 72.7365 5.17329C73.5092 5.46307 74.1768 5.89205 74.7393 6.46023C75.3018 7.02841 75.7393 7.73011 76.0518 8.56534C76.3643 9.39489 76.5206 10.3466 76.5206 11.4205V12.4602H65.1428V10.0398H72.6428C72.6371 9.59659 72.532 9.2017 72.3274 8.85511C72.1229 8.50852 71.8416 8.23864 71.4837 8.04545C71.1314 7.84659 70.7251 7.74716 70.2649 7.74716C69.799 7.74716 69.3814 7.85227 69.0121 8.0625C68.6428 8.26705 68.3501 8.5483 68.1342 8.90625C67.9183 9.25852 67.8047 9.65909 67.7933 10.108V12.571C67.7933 13.1051 67.8984 13.5739 68.1087 13.9773C68.3189 14.375 68.6172 14.6847 69.0036 14.9062C69.3899 15.1278 69.8501 15.2386 70.3842 15.2386C70.7536 15.2386 71.0888 15.1875 71.3899 15.0852C71.6911 14.983 71.9496 14.8324 72.1655 14.6335C72.3814 14.4347 72.5433 14.1903 72.6513 13.9006L76.478 14.0114C76.3189 14.8693 75.9695 15.6165 75.4297 16.2528C74.8956 16.8835 74.1939 17.375 73.3246 17.7273C72.4553 18.0739 71.4496 18.2472 70.3075 18.2472ZM78.6491 18V4.90909H82.6974V7.29545H82.8338C83.0724 6.43182 83.4616 5.78977 84.0014 5.36932C84.5412 4.94318 85.169 4.73011 85.8849 4.73011C86.0781 4.73011 86.277 4.74432 86.4815 4.77273C86.6861 4.79545 86.8764 4.83239 87.0526 4.88352V8.50568C86.8537 8.4375 86.5923 8.38352 86.2685 8.34375C85.9503 8.30398 85.6662 8.28409 85.4162 8.28409C84.9219 8.28409 84.4759 8.39489 84.0781 8.61648C83.6861 8.83239 83.3764 9.13636 83.1491 9.52841C82.9276 9.91477 82.8168 10.3693 82.8168 10.892V18H78.6491ZM94.1903 18.2472C92.821 18.2472 91.6392 17.9773 90.6449 17.4375C89.6563 16.892 88.8949 16.1165 88.3608 15.1108C87.8324 14.0994 87.5682 12.8977 87.5682 11.5057C87.5682 10.1534 87.8352 8.97159 88.3693 7.96023C88.9034 6.94318 89.6562 6.15341 90.6278 5.59091C91.5994 5.02273 92.7443 4.73864 94.0625 4.73864C94.9943 4.73864 95.8466 4.88352 96.6193 5.17329C97.392 5.46307 98.0597 5.89205 98.6222 6.46023C99.1847 7.02841 99.6222 7.73011 99.9347 8.56534C100.247 9.39489 100.403 10.3466 100.403 11.4205V12.4602H89.0256V10.0398H96.5256C96.5199 9.59659 96.4148 9.2017 96.2102 8.85511C96.0057 8.50852 95.7244 8.23864 95.3665 8.04545C95.0142 7.84659 94.608 7.74716 94.1477 7.74716C93.6818 7.74716 93.2642 7.85227 92.8949 8.0625C92.5256 8.26705 92.233 8.5483 92.017 8.90625C91.8011 9.25852 91.6875 9.65909 91.6761 10.108V12.571C91.6761 13.1051 91.7813 13.5739 91.9915 13.9773C92.2017 14.375 92.5 14.6847 92.8864 14.9062C93.2727 15.1278 93.733 15.2386 94.267 15.2386C94.6364 15.2386 94.9716 15.1875 95.2727 15.0852C95.5739 14.983 95.8324 14.8324 96.0483 14.6335C96.2642 14.4347 96.4261 14.1903 96.5341 13.9006L100.361 14.0114C100.202 14.8693 99.8523 15.6165 99.3125 16.2528C98.7784 16.8835 98.0767 17.375 97.2074 17.7273C96.3381 18.0739 95.3324 18.2472 94.1903 18.2472Z" fill="black"/>
</svg>
